PathFileType	4	(X/Y/Z)	C:\Users\Basilio\Documents\Thesis Gigler\squatting_fais\c3dfiles\076\SLS_back_pre3\markers_experimental.trc
DataRate	CameraRate	NumFrames	NumMarkers	Units	OrigDataRate	OrigDataStartFrame	OrigNumFrames
200.000000	200.000000	4	61	mm	200.000000	443	1772
Frame#	Time	FHD			LBHD			RBHD			C7			T10			CLAV			LSHO			LUUPA			LMUPA			LDUPA			LLEP			LMEP			LRAD			LUL			LRFIN			RSHO			RUPA1			RMUPA			RDUPA			RLEP			RMEP			RRAD			RUL			RUFIN			LASI			RASI			USACR			LSACR			RSACR			LTHI1			LTHI2			LTHI3			LTHI4			LLFC			LMFC			LTIB1			LTIB2			LTIB3			LTIB4			LLMAL			LMMAL			LHEE			LMT1			LMT2			LMT5			RTHI			RTHI2			RTHI3			RTHI4			RLFC			RMFC			RTIB1			RTIB2			RTIB3			RTIB4			RLMAL			RMMAL			RHEE			RMT1			RMT2			RMT5			
		X1	Y1	Z1	X2	Y2	Z2	X3	Y3	Z3	X4	Y4	Z4	X5	Y5	Z5	X6	Y6	Z6	X7	Y7	Z7	X8	Y8	Z8	X9	Y9	Z9	X10	Y10	Z10	X11	Y11	Z11	X12	Y12	Z12	X13	Y13	Z13	X14	Y14	Z14	X15	Y15	Z15	X16	Y16	Z16	X17	Y17	Z17	X18	Y18	Z18	X19	Y19	Z19	X20	Y20	Z20	X21	Y21	Z21	X22	Y22	Z22	X23	Y23	Z23	X24	Y24	Z24	X25	Y25	Z25	X26	Y26	Z26	X27	Y27	Z27	X28	Y28	Z28	X29	Y29	Z29	X30	Y30	Z30	X31	Y31	Z31	X32	Y32	Z32	X33	Y33	Z33	X34	Y34	Z34	X35	Y35	Z35	X36	Y36	Z36	X37	Y37	Z37	X38	Y38	Z38	X39	Y39	Z39	X40	Y40	Z40	X41	Y41	Z41	X42	Y42	Z42	X43	Y43	Z43	X44	Y44	Z44	X45	Y45	Z45	X46	Y46	Z46	X47	Y47	Z47	X48	Y48	Z48	X49	Y49	Z49	X50	Y50	Z50	X51	Y51	Z51	X52	Y52	Z52	X53	Y53	Z53	X54	Y54	Z54	X55	Y55	Z55	X56	Y56	Z56	X57	Y57	Z57	X58	Y58	Z58	X59	Y59	Z59	X60	Y60	Z60	X61	Y61	Z61	

444	2.215	-231.3651733398438	1643.676635742188	-994.4837036132815	-369.2221374511719	1567.106323242188	-1087.78369140625	-353.2032470703126	1573.357788085938	-936.8558349609377	-409.8779907226564	1447.80078125	-1010.070983886719	-437.6557006835939	1131.718017578125	-1022.194030761719	-277.0084228515626	1373.78759765625	-1015.846069335938	-344.0786437988282	1403.252563476563	-1176.724365234375	-223.6717376708985	1315.553588867188	-1283.388061523438	-179.9789733886719	1328.017578125	-1261.763793945313	-165.7384948730469	1293.744750976563	-1311.628295898438	-121.7373504638672	1262.421752929688	-1330.907958984375	-116.9712905883789	1204.418090820313	-1275.742553710938	129.3699035644532	1255.30615234375	-1309.233154296875	121.2901382446289	1247.485595703125	-1374.323974609375	209.5729370117188	1267.566528320313	-1321.990966796875	-330.8297119140626	1391.292602539063	-857.4510498046877	-209.2877349853516	1287.07080078125	-768.472106933594	-169.7353973388672	1313.898071289063	-780.793884277344	-143.8677062988282	1262.712768554688	-759.3260498046876	-78.61547851562501	1251.572387695313	-755.1287841796876	-82.33912658691408	1204.227416992188	-818.5302734375002	163.1380310058594	1225.634521484375	-812.2806396484377	156.516342163086	1216.119140625	-746.2382202148439	239.2990875244141	1229.79052734375	-799.3113403320315	-267.0944519042969	947.7837524414065	-1113.533813476563	-279.9113464355469	959.207946777344	-896.6984863281252	-439.7877502441407	1021.895385742188	-1015.943603515625	-444.1128234863282	991.897399902344	-1042.673217773438	-450.7620849609376	994.6082153320315	-985.6312255859377	-343.9841918945313	788.2216796875002	-1170.469360351563	-316.8780822753907	708.5191650390626	-1161.946411132813	-267.4411010742188	711.5091552734376	-1151.538452148438	-346.0992736816407	658.5399780273439	-1143.413330078125	-342.3036804199219	499.5523681640626	-1106.852905273438	-316.7879943847657	504.9440002441407	-990.085632324219	-315.1262817382813	360.7098693847657	-1021.511474609375	-332.5105895996094	301.5059509277344	-1085.19580078125	-306.4570007324219	307.8465881347657	-1045.982543945313	-325.4360046386719	234.9758300781251	-1008.083740234375	-384.7614135742189	109.1792221069336	-1052.982666015625	-359.0723876953126	121.8934402465821	-973.3938598632815	-442.2233886718751	96.89778137207034	-1006.309692382813	-241.1660156250001	50.5677833557129	-992.1787109375002	-234.5698699951172	49.81652832031251	-1030.803100585938	-259.3439025878907	45.56197357177735	-1081.1416015625	-260.0308532714844	739.7523803710939	-801.9194946289065	-197.9063415527344	709.3491210937501	-796.3464355468752	-169.1283264160157	724.5338134765626	-808.2937622070315	-188.6541748046875	625.5411376953126	-801.5404052734377	-175.2491302490235	587.1566772460939	-808.207946777344	-150.1549072265625	571.2567138671876	-924.5638427734377	-250.7889862060547	492.6790466308595	-838.6566162109377	-352.7235717773438	531.8247680664064	-832.7470703125002	-337.9609069824219	487.2414855957032	-838.023132324219	-370.2765808105469	457.964813232422	-878.2155761718752	-525.0389404296876	468.0869750976564	-871.790954589844	-488.3146972656251	448.6993408203126	-947.4438476562502	-543.6954345703126	520.5789794921876	-921.9251708984377	-528.8214721679689	318.0621337890626	-950.218933105469	-537.1514282226564	308.8177185058594	-906.6875000000002	-573.8328857421876	332.3453674316407	-860.8164062500002	
445	2.22	-231.2961883544922	1643.734741210938	-994.4287719726565	-369.0906066894532	1567.133911132813	-1087.659301757813	-353.0986633300782	1573.371948242188	-936.7369384765627	-409.7301025390626	1447.870239257813	-1010.007141113281	-437.7607727050782	1131.696166992188	-1022.400146484375	-276.8897705078126	1373.845825195313	-1015.778503417969	-344.0956115722657	1403.35693359375	-1176.576171875	-223.4472198486329	1316.757690429688	-1283.436645507813	-179.9106597900391	1329.413452148438	-1261.801513671875	-164.7613830566407	1295.156616210938	-1311.58837890625	-121.2279205322266	1264.336791992188	-1331.0849609375	-115.9122161865235	1206.13671875	-1276.404663085938	129.9935302734375	1258.3974609375	-1309.884643554688	121.3590393066407	1250.720947265625	-1374.927734375	210.0270996093751	1271.173217773438	-1322.871337890625	-330.8369445800782	1391.450927734375	-857.5274047851565	-209.0547637939454	1287.915649414063	-768.5405273437502	-169.456787109375	1314.763061523438	-780.8982543945315	-143.426742553711	1263.665771484375	-759.3654785156251	-78.36651611328126	1252.314208984375	-756.3896484375001	-81.6582489013672	1205.361083984375	-818.648376464844	163.8626708984375	1227.693481445313	-812.2846679687502	157.1741180419922	1218.293212890625	-746.2822265625001	239.789291381836	1232.259155273438	-799.2778320312502	-267.1297912597657	947.6663208007815	-1113.427734375	-280.1765747070313	959.3199462890627	-896.6442871093752	-439.915740966797	1021.977783203125	-1016.079650878906	-444.1246032714845	991.888366699219	-1042.770629882813	-450.9205932617189	994.579040527344	-985.8416748046877	-343.9316711425782	788.2242431640627	-1170.411499023438	-316.7484741210938	708.5777587890626	-1161.811889648438	-267.2168579101563	711.5305175781251	-1151.430786132813	-345.9744262695313	658.4715576171876	-1143.383056640625	-341.9419860839844	499.5319824218751	-1106.734741210938	-316.8408508300782	505.013153076172	-989.987487792969	-315.1489257812501	360.7010192871094	-1021.376892089844	-332.4921569824219	301.4725646972657	-1085.14794921875	-306.4032592773438	307.8759765625001	-1045.795166015625	-325.4705505371094	234.9564361572266	-1007.979736328125	-384.624237060547	109.1792984008789	-1052.916015625	-359.0964965820313	121.8541107177735	-973.3609619140627	-442.2357788085939	96.90591430664065	-1006.300537109375	-241.1635437011719	50.53530502319337	-992.096862792969	-234.5701141357422	49.82380294799806	-1030.807739257813	-259.3797912597657	45.56478118896485	-1081.082641601563	-260.4776916503907	739.7557983398439	-802.018981933594	-198.3388671875001	709.2163085937501	-796.4772949218752	-169.4390563964844	724.4759521484376	-808.4126586914065	-189.2265167236328	625.2955322265626	-801.737487792969	-175.7828063964844	587.1450805664064	-808.4062500000002	-150.6253204345703	571.3391113281251	-924.885437011719	-251.7205810546876	493.2735595703126	-839.1306152343752	-353.2255554199219	533.0123901367189	-832.9997558593752	-338.8750000000001	488.3890991210939	-838.4630126953127	-371.3417358398438	459.4354248046876	-878.6807250976565	-525.9985351562501	470.3597106933595	-872.2711181640627	-489.5849609375001	451.1471252441407	-947.9431152343752	-544.3231201171876	523.1578369140626	-922.196472167969	-530.8678588867189	320.5561828613282	-951.4028320312502	-539.3066406250001	311.3128051757813	-907.699401855469	-575.5465698242189	334.7376708984376	-862.1555786132815	
446	2.225	-231.2159423828126	1643.786743164063	-994.4298095703127	-369.0349731445313	1567.265869140625	-1087.7041015625	-352.9847717285157	1573.400756835938	-936.698181152344	-409.6394042968751	1447.898803710938	-1010.008911132813	-437.7474975585939	1131.785400390625	-1022.525146484375	-276.7511596679688	1373.9150390625	-1015.758178710938	-344.0916137695313	1403.496704101563	-1176.47607421875	-223.1145172119141	1317.936279296875	-1283.519165039063	-179.5032196044922	1330.649658203125	-1261.646850585938	-164.3401794433594	1296.730834960938	-1311.74560546875	-121.6180572509766	1266.37744140625	-1331.53466796875	-115.2211532592774	1207.896606445313	-1276.8544921875	130.4771270751953	1261.409790039063	-1310.438232421875	122.2907791137696	1253.901611328125	-1375.466186523438	210.4992828369141	1274.668334960938	-1323.525756835938	-330.7997131347657	1391.54833984375	-857.597106933594	-208.7698516845704	1288.549194335938	-768.5259399414065	-169.4034118652344	1315.528564453125	-781.0171508789065	-143.0894012451172	1264.605346679688	-759.5114135742189	-77.84974670410158	1253.659423828125	-756.4993896484376	-81.01487731933595	1206.7197265625	-818.8331298828127	164.4378967285157	1229.849853515625	-812.3829345703127	157.7457122802735	1220.488647460938	-746.3054809570314	240.3561401367188	1234.850341796875	-799.2534790039065	-267.2112121582032	947.7129516601565	-1113.385864257813	-280.4870910644532	959.3454589843752	-896.5750732421877	-439.9794921875001	1022.063293457031	-1016.198486328125	-444.2359924316407	991.9758300781252	-1042.896240234375	-451.0178527832032	994.6682739257815	-985.9981079101565	-343.7770996093751	788.173278808594	-1170.411743164063	-316.5910339355469	708.6229858398439	-1161.7587890625	-267.1772155761719	711.4752807617189	-1151.337524414063	-345.8423767089844	658.4401855468751	-1143.358642578125	-341.9091186523438	499.4591674804689	-1106.729858398438	-316.9358825683594	505.0043945312501	-989.875183105469	-315.0748901367188	360.7736206054688	-1021.217041015625	-332.4139099121094	301.4409179687501	-1085.05810546875	-306.3393249511719	307.8544616699219	-1045.745361328125	-325.4675903320313	234.9533233642579	-1007.928771972656	-384.5745544433595	109.1634826660157	-1052.8955078125	-359.1361083984376	121.8372192382813	-973.2978515625002	-442.2017822265626	96.9118347167969	-1006.281433105469	-241.2031860351563	50.54856109619142	-992.0489501953127	-234.5668029785157	49.86433410644533	-1030.697998046875	-259.3373413085938	45.63931274414063	-1080.992919921875	-260.8060913085938	739.7471313476564	-802.208190917969	-198.6146697998047	709.3016357421876	-796.6210937500002	-169.777084350586	724.4261474609376	-808.5709228515627	-189.7649536132813	625.2808227539064	-801.9012451171877	-176.3614044189453	587.0569458007814	-808.7085571289065	-151.2074279785157	571.3327636718751	-925.179382324219	-252.5042419433594	493.9156799316407	-839.4860839843752	-353.8886718750001	534.1818847656251	-833.300720214844	-339.7774963378907	489.4350585937501	-838.893737792969	-372.3436889648438	460.7733154296876	-879.178649902344	-526.9348754882814	472.4660644531251	-872.6617431640627	-490.7209472656251	453.6208496093751	-948.5805664062502	-545.0455932617189	525.6049194335939	-922.3843994140627	-532.8153686523439	323.0590209960938	-952.4177856445315	-541.1912841796876	313.6095275878907	-908.6616821289065	-577.6464233398439	337.2702636718751	-862.6482543945315	
447	2.23	-231.1808166503907	1643.952270507813	-994.351257324219	-368.8336791992188	1568.088745117188	-1087.883178710938	-352.9125976562501	1573.409545898438	-936.6939697265627	-409.4965209960939	1447.997192382813	-1009.95947265625	-437.723358154297	1131.904174804688	-1022.682739257813	-276.6670227050782	1373.937255859375	-1015.702880859375	-344.0288391113282	1403.648803710938	-1176.319702148438	-222.9902648925782	1319.011840820313	-1283.556884765625	-179.4027709960938	1331.894653320313	-1261.751831054688	-164.0578155517578	1298.308227539063	-1311.891479492188	-121.0267181396485	1268.282958984375	-1331.83251953125	-114.5069808959961	1209.588256835938	-1277.371948242188	130.9961547851563	1264.389404296875	-1311.038818359375	122.7223510742188	1257.068237304688	-1376.1220703125	211.1613159179688	1278.190307617188	-1324.234252929688	-330.7873840332032	1391.666625976563	-857.6487426757815	-208.5027160644532	1289.251098632813	-768.6053466796877	-169.1939544677735	1316.491943359375	-781.080261230469	-142.7964630126953	1265.654541015625	-759.5744018554689	-77.32315063476564	1254.778564453125	-756.6856689453126	-80.48303222656251	1208.035522460938	-818.866638183594	164.9704132080078	1232.068237304688	-812.490661621094	158.2646942138672	1222.724487304688	-746.4270629882814	241.0451812744141	1237.512084960938	-799.1710205078127	-267.2130432128907	947.643981933594	-1113.277709960938	-280.8188781738282	959.4298095703127	-896.468688964844	-440.1515502929689	1022.129455566406	-1016.293579101563	-445.8085021972657	992.1314086914065	-1042.5009765625	-451.3888549804689	994.6735839843752	-986.0194091796877	-343.7132873535157	788.2053833007815	-1170.453125	-316.4634704589844	708.6554565429689	-1161.684326171875	-267.1033630371094	711.5492553710939	-1151.191162109375	-345.8919677734376	658.4025878906251	-1143.301879882813	-341.6445617675782	499.4969787597657	-1106.67236328125	-317.0197753906251	505.1264648437501	-989.8926391601565	-315.0496826171876	360.8185729980469	-1021.161743164063	-332.2927856445313	301.4600830078126	-1085.02880859375	-306.2590026855469	307.7561645507813	-1045.651489257813	-325.5036621093751	234.9674835205079	-1007.8359375	-384.5990295410157	109.1842498779297	-1052.871948242188	-359.1585388183594	121.8609695434571	-973.258239746094	-442.2202453613282	96.90150451660159	-1006.306762695313	-241.1663513183594	50.49790954589845	-992.0908813476565	-235.0111083984376	50.77899551391603	-1030.807739257813	-260.5384826660157	45.79170608520509	-1080.982055664063	-261.1882019042969	739.8231201171876	-802.4066162109377	-199.0023193359376	709.2996215820314	-796.7695312500002	-170.1518096923828	724.2886962890626	-808.7119750976565	-190.2302398681641	625.2794189453126	-802.115661621094	-176.9162750244141	587.0736694335939	-808.9138183593752	-151.5959625244141	571.3175659179689	-925.493103027344	-253.2374267578126	494.5625305175782	-839.7440185546877	-354.5735778808594	535.2489013671876	-833.718688964844	-340.5971374511719	490.5066223144532	-839.1159667968752	-373.3843688964844	461.8845520019532	-879.5131835937502	-527.7669067382814	474.4865112304689	-873.0025634765627	-491.8587646484376	455.6676635742189	-949.081237792969	-545.6787719726564	528.0047607421876	-922.5875244140627	-535.2876586914064	325.3145751953126	-953.983825683594	-542.9989013671876	315.7949218750001	-909.5708007812502	-579.1422119140626	339.3654479980469	-863.9795532226565	
